<svg xmlns="http://www.w3.org/2000/svg" viewBox="0 0 1440 960" role="img" aria-label="Nulliøn.ai app screenshot preview">
  <defs>
    <linearGradient id="shell" x1="0" y1="0" x2="1" y2="1">
      <stop offset="0" stop-color="#151621"/>
      <stop offset="1" stop-color="#07080c"/>
    </linearGradient>
    <linearGradient id="panel" x1="0" y1="0" x2="0" y2="1">
      <stop offset="0" stop-color="#1c1d28"/>
      <stop offset="1" stop-color="#12131b"/>
    </linearGradient>
    <linearGradient id="purple" x1="0" y1="0" x2="0" y2="1">
      <stop offset="0" stop-color="#8e78ff"/>
      <stop offset="1" stop-color="#6d55ee"/>
    </linearGradient>
    <linearGradient id="approval" x1="0" y1="0" x2="1" y2="1">
      <stop offset="0" stop-color="#242431"/>
      <stop offset="1" stop-color="#171720"/>
    </linearGradient>
    <filter id="softShadow" x="-18%" y="-18%" width="136%" height="136%">
      <feDropShadow dx="0" dy="24" stdDeviation="28" flood-color="#000000" flood-opacity=".48"/>
    </filter>
    <filter id="cardShadow" x="-14%" y="-20%" width="128%" height="150%">
      <feDropShadow dx="0" dy="12" stdDeviation="16" flood-color="#000000" flood-opacity=".38"/>
    </filter>
  </defs>

  <rect width="1440" height="960" rx="34" fill="#05060a"/>
  <rect x="28" y="28" width="1384" height="904" rx="26" fill="none" stroke="#3a3b48" stroke-width="2"/>
  <rect x="36" y="34" width="1368" height="892" rx="24" fill="url(#shell)" stroke="#2a2b3a"/>

  <rect x="36" y="34" width="1368" height="74" rx="24" fill="#14151d"/>
  <path d="M36 84h1368v24H36z" fill="#14151d"/>
  <line x1="36" y1="108" x2="1404" y2="108" stroke="#2c2d3b"/>

  <circle cx="82" cy="71" r="25" fill="url(#purple)"/>
  <circle cx="82" cy="71" r="25" fill="none" stroke="#37208f" stroke-opacity=".28" stroke-width="3"/>
  <circle cx="82" cy="71" r="11" fill="none" stroke="#ffffff" stroke-width="7"/>
  <line x1="70" y1="84" x2="94" y2="58" stroke="#ffffff" stroke-width="7" stroke-linecap="square"/>
  <text x="122" y="82" font-family="Inter, Arial, sans-serif" font-size="28" font-weight="850" fill="#f7f5ff">Nulliøn.ai</text>
  <rect x="1070" y="52" width="176" height="38" rx="19" fill="#12362d" stroke="#238260"/>
  <text x="1158" y="77" text-anchor="middle" font-family="Inter, Arial, sans-serif" font-size="15" font-weight="800" fill="#35d9a8">● Checkpoint ready</text>
  <rect x="1264" y="51" width="104" height="40" rx="8" fill="#202130" stroke="#34364a"/>
  <text x="1316" y="77" text-anchor="middle" font-family="Inter, Arial, sans-serif" font-size="19" font-weight="800" fill="#aaa7ba">⚙</text>

  <line x1="1002" y1="108" x2="1002" y2="926" stroke="#2c2d3b"/>
  <line x1="36" y1="812" x2="1002" y2="812" stroke="#2c2d3b"/>

  <rect x="70" y="136" width="894" height="150" rx="12" fill="#0f1017" stroke="#2b2d3d"/>
  <text x="96" y="174" font-family="Inter, Arial, sans-serif" font-size="16" font-weight="850" fill="#9693a5">CURRENT MISSION</text>
  <text x="96" y="215" font-family="Inter, Arial, sans-serif" font-size="34" font-weight="850" fill="#f7f5ff">Preparing a clean market brief</text>
  <text x="96" y="253" font-family="Inter, Arial, sans-serif" font-size="21" font-weight="650" fill="#aaa7ba">Nulliøn.ai is fetching, checking approvals, and keeping artifacts ready for delivery.</text>
  <rect x="728" y="162" width="206" height="44" rx="22" fill="#132f2a" stroke="#258061"/>
  <text x="831" y="190" text-anchor="middle" font-family="Inter, Arial, sans-serif" font-size="18" font-weight="850" fill="#35d9a8">● Active request</text>
  <rect x="765" y="222" width="169" height="40" rx="20" fill="#242047" stroke="#6657d8"/>
  <text x="850" y="248" text-anchor="middle" font-family="Inter, Arial, sans-serif" font-size="17" font-weight="850" fill="#b8a9ff">4 channels</text>

  <g filter="url(#cardShadow)">
    <rect x="102" y="332" width="544" height="118" rx="10" fill="url(#panel)" stroke="#303244"/>
    <circle cx="72" cy="364" r="21" fill="url(#purple)" stroke="#37208f" stroke-opacity=".28" stroke-width="3"/>
    <circle cx="72" cy="364" r="9" fill="none" stroke="#ffffff" stroke-width="6"/>
    <line x1="62" y1="375" x2="82" y2="353" stroke="#ffffff" stroke-width="6" stroke-linecap="square"/>
    <text x="128" y="372" font-family="Inter, Arial, sans-serif" font-size="22" font-weight="800" fill="#f5f4fb">I can fetch the page and return an HTML artifact.</text>
    <text x="128" y="410" font-family="Inter, Arial, sans-serif" font-size="18" font-weight="600" fill="#aaa7ba">I’ll ask before external access and attach the file when it’s ready.</text>

    <rect x="610" y="488" width="354" height="62" rx="10" fill="url(#purple)"/>
    <circle cx="988" cy="519" r="24" fill="url(#purple)" stroke="#8d7bff"/>
    <text x="988" y="528" text-anchor="middle" font-family="Inter, Arial, sans-serif" font-size="21" font-weight="850" fill="#ffffff">H</text>
    <text x="787" y="526" text-anchor="middle" font-family="Inter, Arial, sans-serif" font-size="21" font-weight="850" fill="#ffffff">Send me the finished file here</text>

    <rect x="102" y="596" width="660" height="154" rx="10" fill="url(#approval)" stroke="#d7aa37" stroke-opacity=".7"/>
    <text x="128" y="638" font-family="Inter, Arial, sans-serif" font-size="18" font-weight="900" fill="#f0c24d">🛡️ Allow web access?</text>
    <text x="128" y="672" font-family="Inter, Arial, sans-serif" font-size="18" font-weight="650" fill="#d7d3e8">Nulliøn.ai paused before opening an external domain.</text>
    <rect x="128" y="696" width="468" height="34" rx="7" fill="#0d0e14" stroke="#303244"/>
    <text x="146" y="719" font-family="Inter, Arial, sans-serif" font-size="15" font-weight="750" fill="#f5f4fb">https://news.example.com</text>
    <rect x="616" y="696" width="112" height="34" rx="8" fill="#282457" stroke="#6958e7"/>
    <text x="672" y="719" text-anchor="middle" font-family="Inter, Arial, sans-serif" font-size="14" font-weight="850" fill="#b8a9ff">Allow once</text>
  </g>

  <rect x="70" y="834" width="52" height="52" rx="14" fill="#202130" stroke="#35364a"/>
  <text x="96" y="868" text-anchor="middle" font-family="Inter, Arial, sans-serif" font-size="25" fill="#aaa7ba">⌘</text>
  <rect x="140" y="834" width="704" height="52" rx="14" fill="#1b1c26" stroke="#303244"/>
  <text x="164" y="867" font-family="Inter, Arial, sans-serif" font-size="19" font-weight="650" fill="#777486">Message Nulliøn.ai…</text>
  <rect x="862" y="834" width="102" height="52" rx="14" fill="url(#purple)"/>
  <text x="913" y="867" text-anchor="middle" font-family="Inter, Arial, sans-serif" font-size="19" font-weight="850" fill="#ffffff">Send</text>

  <rect x="1032" y="136" width="332" height="108" rx="10" fill="url(#panel)" stroke="#303244"/>
  <text x="1056" y="174" font-family="Inter, Arial, sans-serif" font-size="16" font-weight="850" fill="#aaa7ba">CONTROL CENTER</text>
  <rect x="1056" y="194" width="72" height="30" rx="15" fill="#2a254f" stroke="#6d57ea"/>
  <text x="1092" y="215" text-anchor="middle" font-family="Inter, Arial, sans-serif" font-size="15" font-weight="850" fill="#b8a9ff">🛡 3</text>
  <rect x="1140" y="194" width="88" height="30" rx="15" fill="#202130" stroke="#35364a"/>
  <text x="1184" y="215" text-anchor="middle" font-family="Inter, Arial, sans-serif" font-size="15" font-weight="850" fill="#f5f4fb">History 8</text>
  <rect x="1240" y="194" width="78" height="30" rx="15" fill="#14372d" stroke="#257b5f"/>
  <text x="1279" y="215" text-anchor="middle" font-family="Inter, Arial, sans-serif" font-size="15" font-weight="850" fill="#35d9a8">🩺 0</text>

  <rect x="1032" y="268" width="332" height="178" rx="10" fill="url(#panel)" stroke="#303244"/>
  <text x="1056" y="306" font-family="Inter, Arial, sans-serif" font-size="17" font-weight="850" fill="#f5f4fb">Security</text>
  <text x="1056" y="336" font-family="Inter, Arial, sans-serif" font-size="15" font-weight="650" fill="#aaa7ba">Risk based approvals are active.</text>
  <rect x="1056" y="360" width="128" height="34" rx="8" fill="#14372d" stroke="#257b5f"/>
  <text x="1120" y="382" text-anchor="middle" font-family="Inter, Arial, sans-serif" font-size="14" font-weight="850" fill="#35d9a8">Allowed</text>
  <rect x="1196" y="360" width="116" height="34" rx="8" fill="#33223a" stroke="#8d5266"/>
  <text x="1254" y="382" text-anchor="middle" font-family="Inter, Arial, sans-serif" font-size="14" font-weight="850" fill="#ff8aa6">Denied</text>
  <text x="1056" y="418" font-family="Inter, Arial, sans-serif" font-size="14" font-weight="650" fill="#777486">Permission memory expires automatically.</text>

  <rect x="1032" y="468" width="332" height="150" rx="10" fill="url(#panel)" stroke="#303244"/>
  <text x="1056" y="505" font-family="Inter, Arial, sans-serif" font-size="17" font-weight="850" fill="#f5f4fb">Builder</text>
  <text x="1056" y="536" font-family="Inter, Arial, sans-serif" font-size="15" font-weight="650" fill="#aaa7ba">artifact.html</text>
  <rect x="1056" y="558" width="260" height="12" rx="6" fill="#242638"/>
  <rect x="1056" y="558" width="202" height="12" rx="6" fill="#7b63ff"/>
  <text x="1056" y="594" font-family="Inter, Arial, sans-serif" font-size="14" font-weight="650" fill="#777486">Preparing file delivery</text>

  <rect x="1032" y="640" width="332" height="198" rx="10" fill="url(#panel)" stroke="#303244"/>
  <text x="1056" y="678" font-family="Inter, Arial, sans-serif" font-size="17" font-weight="850" fill="#f5f4fb">Settings</text>
  <rect x="1056" y="700" width="96" height="34" rx="8" fill="#2a254f" stroke="#6d57ea"/>
  <text x="1104" y="722" text-anchor="middle" font-family="Inter, Arial, sans-serif" font-size="14" font-weight="850" fill="#ffffff">Security</text>
  <rect x="1164" y="700" width="92" height="34" rx="8" fill="#202130" stroke="#35364a"/>
  <text x="1210" y="722" text-anchor="middle" font-family="Inter, Arial, sans-serif" font-size="14" font-weight="850" fill="#aaa7ba">People</text>
  <rect x="1268" y="700" width="72" height="34" rx="8" fill="#202130" stroke="#35364a"/>
  <text x="1304" y="722" text-anchor="middle" font-family="Inter, Arial, sans-serif" font-size="14" font-weight="850" fill="#aaa7ba">Crons</text>
  <text x="1056" y="768" font-family="Inter, Arial, sans-serif" font-size="15" font-weight="650" fill="#aaa7ba">Approval mode</text>
  <rect x="1178" y="746" width="132" height="34" rx="17" fill="#14372d" stroke="#257b5f"/>
  <text x="1244" y="768" text-anchor="middle" font-family="Inter, Arial, sans-serif" font-size="14" font-weight="850" fill="#35d9a8">Risk based</text>
  <text x="1056" y="810" font-family="Inter, Arial, sans-serif" font-size="15" font-weight="650" fill="#aaa7ba">People mode</text>
  <rect x="1258" y="792" width="48" height="26" rx="13" fill="#7b63ff"/>
  <circle cx="1292" cy="805" r="10" fill="#ffffff"/>
</svg>
